<?xml version="1.0" standalone="no"?>
<!DOCTYPE svg PUBLIC "-//W3C//DTD SVG 20010904//EN"
 "http://www.w3.org/TR/2001/REC-SVG-20010904/DTD/svg10.dtd">
<svg version="1.0" xmlns="http://www.w3.org/2000/svg"
 width="260.000000pt" height="260.000000pt" viewBox="0 0 260.000000 260.000000"
 preserveAspectRatio="xMidYMid meet">
<metadata>
Created by potrace 1.11, written by Peter Selinger 2001-2013
</metadata>
<g transform="translate(0.000000,260.000000) scale(0.100000,-0.100000)"
fill="#000000" stroke="none">
<path d="M454 1871 c-50 -20 -109 -51 -132 -69 -111 -89 -208 -233 -233 -352
-17 -80 -7 -314 17 -375 10 -27 22 -52 25 -55 3 -3 11 -20 18 -37 8 -18 16
-33 20 -33 3 0 19 -19 35 -43 16 -23 48 -58 73 -77 24 -19 52 -43 63 -52 27
-24 49 -35 141 -67 74 -26 94 -29 218 -29 117 -1 148 3 212 22 83 27 151 55
159 65 3 4 26 22 52 39 47 32 124 107 187 183 l35 41 19 -39 c11 -21 25 -41
31 -45 6 -5 7 -8 1 -8 -6 0 -5 -4 1 -8 6 -4 20 -21 30 -38 16 -25 62 -69 130
-123 22 -18 60 -34 141 -62 77 -26 96 -28 223 -27 121 0 148 3 205 24 105 38
141 60 218 133 80 76 123 142 161 243 22 60 25 82 25 212 0 152 -12 208 -66
308 -62 116 -189 225 -318 272 -74 28 -91 30 -242 33 -105 2 -163 0 -163 -7 0
-5 -7 -10 -16 -10 -28 0 -156 -61 -206 -99 -69 -51 -238 -222 -238 -241 0 -4
-3 -10 -7 -12 -5 -1 -20 -21 -34 -43 -81 -127 -99 -155 -99 -161 0 -11 -87
-119 -142 -175 -30 -31 -70 -65 -89 -74 -19 -10 -38 -24 -42 -31 -4 -8 -40
-23 -78 -35 -119 -36 -206 -16 -296 68 -125 116 -125 300 0 416 90 84 177 104
296 68 38 -12 74 -27 78 -35 4 -7 22 -20 38 -29 17 -8 50 -34 74 -56 46 -43
71 -52 71 -25 0 8 12 34 28 57 15 23 32 50 37 58 36 57 81 119 87 119 16 0 7
30 -14 52 -13 13 -48 41 -78 63 -30 22 -57 42 -60 45 -9 10 -85 43 -151 65
-58 20 -87 23 -210 23 -143 0 -145 -1 -235 -37z m1576 -304 c59 -26 137 -106
160 -165 43 -114 16 -233 -73 -315 -62 -59 -104 -78 -180 -82 -65 -4 -155 18
-174 43 -7 9 -13 13 -13 9 0 -4 -10 2 -22 14 -55 49 -77 73 -72 80 2 4 -1 13
-8 21 -17 18 -21 32 -27 108 -9 99 22 168 112 248 63 56 212 75 297 39z"/>
</g>
</svg>
