<?xml version="1.0" standalone="no"?>
<!DOCTYPE svg PUBLIC "-//W3C//DTD SVG 20010904//EN"
 "http://www.w3.org/TR/2001/REC-SVG-20010904/DTD/svg10.dtd">
<svg version="1.0" xmlns="http://www.w3.org/2000/svg"
 width="260.000000pt" height="260.000000pt" viewBox="0 0 260.000000 260.000000"
 preserveAspectRatio="xMidYMid meet">
<metadata>
Created by potrace 1.11, written by Peter Selinger 2001-2013
</metadata>
<g transform="translate(0.000000,260.000000) scale(0.100000,-0.100000)"
fill="#000000" stroke="none">
<path d="M588 1905 c-2 -2 -15 -5 -30 -7 -15 -2 -30 -7 -34 -11 -4 -4 -14 -7
-21 -7 -8 0 -49 -17 -91 -37 -145 -71 -273 -231 -315 -394 -21 -81 -22 -226
-1 -301 14 -56 44 -126 77 -183 36 -62 175 -195 205 -195 6 0 12 -3 12 -8 0
-4 26 -17 57 -28 32 -12 67 -25 78 -29 38 -14 60 -17 180 -18 101 -1 160 4
173 14 1 1 5 2 10 3 70 17 211 89 234 121 4 5 8 7 8 3 0 -4 11 3 24 15 81 75
108 104 142 152 22 30 42 54 46 55 4 0 9 -9 13 -19 12 -40 98 -157 146 -202
45 -42 173 -114 217 -123 9 -1 26 -7 37 -12 23 -9 242 -12 296 -3 20 4 47 12
60 19 13 8 24 12 24 10 0 -6 118 53 138 69 170 138 253 294 256 486 2 89 -18
215 -38 239 -5 6 -9 13 -9 16 0 10 -38 86 -50 98 -6 7 -12 17 -12 21 0 11
-130 141 -140 141 -5 0 -16 8 -26 18 -10 9 -20 17 -23 17 -3 1 -20 8 -37 18
-89 47 -159 61 -304 62 -103 0 -230 -26 -230 -47 0 -4 -4 -7 -8 -5 -8 2 -81
-32 -92 -43 -3 -3 -23 -18 -45 -34 -22 -16 -47 -37 -56 -45 -9 -9 -34 -32 -55
-52 -56 -52 -174 -197 -174 -215 0 -22 -167 -252 -225 -310 -73 -73 -186 -145
-230 -148 -14 0 -25 -4 -25 -7 0 -11 -125 -3 -147 10 -13 6 -23 9 -23 6 0 -10
-94 57 -118 84 -47 54 -66 111 -65 191 0 41 2 82 5 90 13 44 20 60 29 60 5 0
8 4 7 9 -3 9 35 54 74 87 65 55 205 76 283 43 17 -7 33 -13 36 -13 13 -2 114
-70 135 -90 60 -61 59 -61 84 -19 24 40 70 111 83 128 4 6 21 28 37 49 17 22
29 44 27 50 -3 9 -38 39 -127 110 -17 13 -154 82 -157 79 -2 -1 -17 4 -35 11
-18 8 -41 12 -50 11 -10 -2 -18 1 -18 5 0 8 -214 13 -222 5z m1438 -330 c13
-8 24 -13 24 -9 0 10 72 -47 100 -79 69 -79 88 -224 42 -318 -33 -68 -113
-143 -164 -155 -5 -1 -9 -2 -10 -4 -17 -13 -146 -21 -154 -9 -3 5 -18 9 -34 9
-16 0 -32 5 -35 10 -4 6 -11 8 -16 5 -5 -4 -9 -1 -9 4 0 6 -5 11 -11 11 -28 0
-90 65 -120 125 -29 60 -31 70 -27 150 3 55 9 89 17 94 7 5 12 11 12 15 -3 18
3 26 45 70 36 38 95 76 124 81 3 0 11 4 18 8 6 5 16 6 21 2 5 -3 12 -1 16 5 9
14 134 3 161 -15z"/>
</g>
</svg>
