<svg xmlns="http://www.w3.org/2000/svg" data-name="Layer 1" viewBox="0 0 372.42 63"><defs><linearGradient id="a" x1="19.67" y1="6.33" x2="49.89" y2="58.66" gradientTransform="matrix(.3 .95 .95 -.3 -6.72 8.19)" gradientUnits="userSpaceOnUse"><stop offset="0" stop-color="#da680d"/><stop offset="1" stop-color="#85a439"/></linearGradient><linearGradient id="b" x1="6.49" y1="54.38" x2="51.57" y2="9.31" gradientTransform="matrix(.7 .71 .71 -.7 -14.03 33.92)" gradientUnits="userSpaceOnUse"><stop offset="0" stop-color="#280e18"/><stop offset="1" stop-color="#f90"/></linearGradient><linearGradient id="c" x1="4.22" y1="22.02" x2="4.22" y2="54.3" gradientTransform="matrix(.13 .99 .99 -.13 -34.17 26.72)" gradientUnits="userSpaceOnUse"><stop offset="0" stop-color="#ca1516"/><stop offset="1" stop-color="#280e18"/></linearGradient><linearGradient id="d" x1="47.86" y1="11.57" x2="63.71" y2="39.02" gradientTransform="matrix(.25 .97 .97 -.25 17.35 -8.99)" gradientUnits="userSpaceOnUse"><stop offset="0" stop-color="#f90"/><stop offset="1" stop-color="#464225"/></linearGradient><linearGradient id="e" x1="7.78" y1="54.3" x2="7.78" y2="35.71" gradientTransform="matrix(.99 .15 .15 -.99 -6.71 62.31)" gradientUnits="userSpaceOnUse"><stop offset="0" stop-color="#280e18"/><stop offset="1" stop-color="#102142"/></linearGradient><linearGradient id="f" x1="8.2" y1="35.19" x2="26.42" y2="3.63" gradientTransform="matrix(.9 .44 .44 -.9 -6.83 54.28)" gradientUnits="userSpaceOnUse"><stop offset="0" stop-color="#102142"/><stop offset="1" stop-color="#da680d"/></linearGradient><linearGradient id="g" x1="15.9" y1="54.35" x2="15.9" y2="3" gradientTransform="matrix(.94 .35 .35 -.94 -9 56.67)" gradientUnits="userSpaceOnUse"><stop offset="0" stop-color="#280e18"/><stop offset="1" stop-color="#da680d"/></linearGradient><linearGradient id="h" x1="10.17" y1="60.96" x2="56.11" y2="34.44" gradientTransform="matrix(.24 .97 .97 -.24 -21.07 -4.54)" gradientUnits="userSpaceOnUse"><stop offset="0" stop-color="#280e18"/><stop offset="1" stop-color="#464225"/></linearGradient><linearGradient id="i" x1="45.54" y1="62.78" x2="58.51" y2="40.31" gradientTransform="matrix(.8 .6 .6 -.8 -20.58 22.09)" gradientUnits="userSpaceOnUse"><stop offset="0" stop-color="#85a439"/><stop offset="1" stop-color="#464225"/></linearGradient><linearGradient id="j" x1="2.61" y1="21.5" x2="43.6" y2="62.49" gradientTransform="matrix(.73 .69 .69 -.73 -22.55 36.61)" gradientUnits="userSpaceOnUse"><stop offset="0" stop-color="#ca1516"/><stop offset="1" stop-color="#85a439"/></linearGradient><linearGradient id="k" x1="1.77" y1="22.21" x2="9.5" y2="35.59" gradientTransform="matrix(.46 .89 .89 -.46 -22.6 43.43)" gradientUnits="userSpaceOnUse"><stop offset="0" stop-color="#ca1516"/><stop offset="1" stop-color="#102142"/></linearGradient><linearGradient id="l" x1="3.15" y1="23.17" x2="24.35" y2="1.97" gradientTransform="matrix(.63 .78 .78 -.63 -4.68 48.69)" gradientUnits="userSpaceOnUse"><stop offset="0" stop-color="#ca1516"/><stop offset="1" stop-color="#da680d"/></linearGradient><linearGradient id="m" x1="24.51" y1="3.95" x2="60.81" y2="40.26" gradientTransform="matrix(.67 .74 .74 -.67 -2.37 25.13)" gradientUnits="userSpaceOnUse"><stop offset="0" stop-color="#da680d"/><stop offset="1" stop-color="#464225"/></linearGradient><linearGradient id="n" x1="13.2" y1="39.83" x2="47.68" y2="5.36" gradientTransform="matrix(.53 .85 .85 -.53 -4.8 27.42)" gradientUnits="userSpaceOnUse"><stop offset="0" stop-color="#102142"/><stop offset="1" stop-color="#f90"/></linearGradient><linearGradient id="o" x1="47.92" y1="61.97" x2="47.92" y2="9.4" gradientTransform="matrix(.99 .14 .14 -.99 -4.59 56.83)" gradientUnits="userSpaceOnUse"><stop offset="0" stop-color="#85a439"/><stop offset="1" stop-color="#f90"/></linearGradient><linearGradient id="p" x1="13.18" y1="26.45" x2="54.75" y2="50.45" gradientTransform="matrix(.99 .1 .1 -.99 -3.79 60.27)" gradientUnits="userSpaceOnUse"><stop offset="0" stop-color="#102142"/><stop offset="1" stop-color="#464225"/></linearGradient><linearGradient id="q" x1="6.28" y1="58.11" x2="44.24" y2="58.11" gradientTransform="matrix(.98 .2 .2 -.98 -11.07 57.81)" gradientUnits="userSpaceOnUse"><stop offset="0" stop-color="#280e18"/><stop offset="1" stop-color="#85a439"/></linearGradient><linearGradient id="r" x1="5.42" y1="28.12" x2="48.31" y2="3.36" gradientTransform="matrix(.25 .97 .97 -.25 4.99 26.1)" gradientUnits="userSpaceOnUse"><stop offset="0" stop-color="#ca1516"/><stop offset="1" stop-color="#f90"/></linearGradient><linearGradient id="s" x1="27.2" y1="-.29" x2="49.89" y2="12.81" gradientTransform="matrix(.97 .24 .24 -.97 -.39 54.75)" gradientUnits="userSpaceOnUse"><stop offset="0" stop-color="#da680d"/><stop offset="1" stop-color="#f90"/></linearGradient><linearGradient id="t" x1="11.35" y1="33.52" x2="42" y2="64.17" gradientTransform="matrix(.8 .6 .6 -.8 -23.96 38.25)" gradientUnits="userSpaceOnUse"><stop offset="0" stop-color="#102142"/><stop offset="1" stop-color="#85a439"/></linearGradient><linearGradient id="u" x1="5.08" y1="16.65" x2="56.89" y2="46.57" gradientTransform="matrix(.95 .31 .31 -.95 -8.36 52.69)" gradientUnits="userSpaceOnUse"><stop offset="0" stop-color="#ca1516"/><stop offset="1" stop-color="#464225"/></linearGradient></defs><path d="M75.74 19.08h9.15c5.54 0 9.36 2.85 9.36 7.71v.07c0 5.29-4.58 8-9.83 8h-6.8v9.39h-1.88zm8.79 14.08c4.68 0 7.84-2.45 7.84-6.19v-.08c0-4-3.09-6.08-7.63-6.08h-7.12v12.35zM99 18h1.76v11.34a7.18 7.18 0 016.62-3.85c4.65 0 7.35 3.17 7.35 7.56v11.23H113V33.37c0-3.78-2.12-6.26-5.83-6.26a6.28 6.28 0 00-6.37 6.2V44.28H99zM118.8 49.36l.61-1.55a6.42 6.42 0 003.13.68c1.91 0 3.17-1.11 4.54-4.32l-8.82-18.25h2l7.63 16.42 6.63-16.42h1.94l-8 19c-1.62 3.85-3.49 5.22-6.12 5.22a8.19 8.19 0 01-3.54-.78zM138.71 42l1-1.41a10.82 10.82 0 006.63 2.41c2.48 0 4.43-1.36 4.43-3.49v-.07c0-2.16-2.31-3-4.86-3.67-3-.86-6.3-1.76-6.3-5v-.07c0-2.95 2.48-5.08 6-5.08a12.37 12.37 0 016.52 2l-.94 1.47a10.57 10.57 0 00-5.65-1.83c-2.52 0-4.17 1.37-4.17 3.2v.07c0 2.06 2.48 2.81 5.11 3.57 3 .83 6 1.9 6 5.15v.07c0 3.27-2.81 5.36-6.34 5.36a12.54 12.54 0 01-7.43-2.68zM157.86 18.72h2.19v2.42h-2.19zm.22 7.2h1.76v18.36h-1.76zM165.17 35.17v-.07a9.53 9.53 0 019.36-9.61 9.64 9.64 0 017.34 3.38l-1.26 1.3c-1.58-1.62-3.38-3-6.12-3a7.57 7.57 0 00-7.41 7.74v.16a7.72 7.72 0 007.43 8h.12a8.24 8.24 0 006.16-3.07l1.21 1.08a9.41 9.41 0 01-16.84-5.91zM185.11 39v-.07c0-3.81 3.28-6 8-6a21.93 21.93 0 016.08.79v-.79c0-3.71-2.27-5.62-6.05-5.62a12.18 12.18 0 00-5.75 1.48l-.65-1.55a14.61 14.61 0 016.51-1.59 7.92 7.92 0 015.8 2 7 7 0 011.95 5.18v11.45h-1.73v-3.06a8.35 8.35 0 01-7 3.49c-3.49 0-7.16-1.94-7.16-5.71zm14.15-1.54v-2.14a23.85 23.85 0 00-6.23-.83c-3.89 0-6.05 1.73-6.05 4.28v.07c0 2.67 2.52 4.22 5.33 4.22 3.74 0 6.95-2.31 6.95-5.65zM207.18 18h1.76v26.28h-1.76zM224.75 40.61l1.22-1.4A12.24 12.24 0 00235 43c3.78 0 6.37-2.13 6.37-5v-.08c0-2.66-1.41-4.21-7.13-5.36-6.05-1.22-8.5-3.28-8.5-7.09v-.07c0-3.75 3.42-6.63 8.1-6.63a12.55 12.55 0 018.64 3.06l-1.19 1.48a10.83 10.83 0 00-7.52-2.84c-3.71 0-6.15 2.12-6.15 4.75v.07c0 2.66 1.36 4.28 7.34 5.51s8.28 3.27 8.28 6.94v.07c0 4.07-3.49 6.88-8.35 6.88a14.32 14.32 0 01-10.14-4.08zM247.39 35.17v-.07a9.46 9.46 0 0116.7-6.23l-1.26 1.3c-1.58-1.62-3.38-3-6.12-3a7.57 7.57 0 00-7.41 7.74v.16a7.72 7.72 0 007.43 8h.13A8.22 8.22 0 00263 40l1.23 1.08a9.42 9.42 0 01-16.85-5.91zM268.88 18.72h2.2v2.42h-2.2zm.22 7.2h1.76v18.36h-1.76zM276.19 35.14v-.07c0-5.33 3.74-9.58 8.71-9.58 5.15 0 8.42 4.18 8.42 9.61a4.33 4.33 0 010 .72h-15.26c.33 4.57 3.6 7.24 7.2 7.24a8.25 8.25 0 006.3-2.88l1.22 1.08a9.65 9.65 0 01-7.59 3.45c-4.82 0-9-3.85-9-9.57zm15.23-.9c-.26-3.71-2.38-7.13-6.59-7.13-3.64 0-6.44 3.06-6.77 7.13zM298.12 25.92h1.76v3.42a7.18 7.18 0 016.62-3.85c4.65 0 7.34 3.17 7.34 7.56v11.23h-1.76V33.37c0-3.78-2.12-6.26-5.83-6.26a6.28 6.28 0 00-6.37 6.2V44.28h-1.76zM318.56 35.17v-.07a9.46 9.46 0 0116.7-6.23l-1.26 1.3c-1.58-1.62-3.38-3-6.12-3a7.57 7.57 0 00-7.41 7.74v.16a7.72 7.72 0 007.43 8h.1a8.2 8.2 0 006.18-3.07l1.23 1.08a9.42 9.42 0 01-16.85-5.91zM338.22 35.14v-.07c0-5.33 3.74-9.58 8.71-9.58 5.15 0 8.42 4.18 8.42 9.61a4.33 4.33 0 010 .72h-15.26c.32 4.57 3.6 7.24 7.2 7.24a8.25 8.25 0 006.3-2.88l1.22 1.08a9.65 9.65 0 01-7.59 3.45c-4.83 0-9-3.85-9-9.57zm15.22-.9c-.25-3.71-2.37-7.13-6.58-7.13-3.64 0-6.45 3.06-6.77 7.13zM358.56 42l1-1.41a10.82 10.82 0 006.63 2.41c2.48 0 4.43-1.36 4.43-3.49v-.07c0-2.16-2.31-3-4.86-3.67-3-.86-6.3-1.76-6.3-5v-.07c0-2.95 2.48-5.08 6.05-5.08a12.37 12.37 0 016.51 2l-.94 1.47a10.57 10.57 0 00-5.65-1.83c-2.52 0-4.17 1.37-4.17 3.2v.07c0 2.06 2.48 2.81 5.11 3.57 2.95.83 6.05 1.9 6.05 5.15v.07c0 3.27-2.81 5.36-6.34 5.36a12.54 12.54 0 01-7.52-2.68z" fill="maroon"/><path transform="rotate(-72.38 34.785 31.503)" fill="url(#a)" d="M3.9 31.27h61.77v.47H3.9z"/><path transform="rotate(-45.3 29.03 32.148)" fill="url(#b)" d="M28.79.28h.47v63.74h-.47z"/><path transform="rotate(-82.5 4.161 25.828)" fill="url(#c)" d="M-12.03 25.6h32.5v.47h-32.5z"/><path transform="rotate(-75.53 55.786 38.705)" fill="url(#d)" d="M39.4 38.47h32.77v.47H39.4z"/><path transform="rotate(-8.69 7.757 18.99)" fill="url(#e)" d="M7.55 9.64h.47v18.73h-.47z"/><path transform="rotate(-26.38 17.3 44.588)" fill="url(#f)" d="M17.07 26.35h.47v36.48h-.47z"/><path transform="rotate(-20.4 15.904 35.337)" fill="url(#g)" d="M15.66 8.02h.47v54.62h-.47z"/><path transform="rotate(-76.23 33.146 16.295)" fill="url(#h)" d="M32.91-11.26h.47v55.11h-.47z"/><path transform="rotate(-37.18 52.02 12.466)" fill="url(#i)" d="M51.79-.58h.47v26.09h-.47z"/><path transform="rotate(-43.44 23.1 22)" fill="url(#j)" d="M-5.89 21.77h57.97v.47H-5.89z"/><path transform="rotate(-62.53 5.635 35.103)" fill="url(#k)" d="M-2.09 34.87h15.45v.47H-2.09z"/><path transform="rotate(-50.89 13.749 51.442)" fill="url(#l)" d="M13.51 36.39h.47v30.09h-.47z"/><path transform="rotate(-47.81 42.665 41.896)" fill="url(#m)" d="M16.97 41.65h51.38v.47H16.97z"/><path transform="rotate(-58.22 30.44 41.394)" fill="url(#n)" d="M30.21 16.41h.47v49.97h-.47z"/><path transform="rotate(-8.17 47.938 28.334)" fill="url(#o)" d="M47.68 1.8h.47v53.04h-.47z"/><path transform="rotate(-5.94 33.945 25.532)" fill="url(#p)" d="M7.89 25.08h52.15v.93H7.89z"/><path transform="rotate(-11.49 25.26 5.905)" fill="url(#q)" d="M5.99 5.43h38.54v.93H5.99z"/><path transform="rotate(-75.73 26.869 48.255)" fill="url(#r)" d="M26.41 22.66h.93v51.19h-.93z"/><path transform="rotate(-13.62 38.545 57.728)" fill="url(#s)" d="M25.03 57.28h27.03v.93H25.03z"/><path transform="rotate(-36.84 26.675 15.155)" fill="url(#t)" d="M4.84 14.69H48.5v.93H4.84z"/><path transform="rotate(-18.28 30.973 32.401)" fill="url(#u)" d="M.53 31.93h60.91v.93H.53z"/><circle cx="25.41" cy="60.93" r="2.07" fill="#da680d"/><circle cx="51.68" cy="54.57" r="2.07" fill="#f90"/><circle cx="59.9" cy="22.85" r="2.07" fill="#464225"/><circle cx="2.07" cy="41.95" r="2.07" fill="#ca1516"/><circle cx="9.2" cy="28.25" r="2.07" fill="#102142"/><circle cx="44.14" cy="2.07" r="2.07" fill="#85a439"/><circle cx="6.37" cy="9.74" r="2.07" fill="#280e18"/></svg>