<svg id="Layer_1" data-name="Layer 1" xmlns="http://www.w3.org/2000/svg" xmlns:xlink="http://www.w3.org/1999/xlink" viewBox="0 0 100 100"><defs><linearGradient id="linear-gradient" x1="39.91" y1="362.25" x2="70.13" y2="309.92" gradientTransform="translate(356.38 -103.14) rotate(72.47)" gradientUnits="userSpaceOnUse"><stop offset="0" stop-color="#da680d"/><stop offset="1" stop-color="#85a439"/></linearGradient><linearGradient id="linear-gradient-2" x1="26.65" y1="313.96" x2="71.73" y2="359.03" gradientTransform="translate(252.52 -219.73) rotate(45.41)" gradientUnits="userSpaceOnUse"><stop offset="0" stop-color="#280e18"/><stop offset="1" stop-color="#f90"/></linearGradient><linearGradient id="linear-gradient-3" x1="23.95" y1="346.91" x2="23.95" y2="314.63" gradientTransform="translate(346.98 -22.33) rotate(82.52)" gradientUnits="userSpaceOnUse"><stop offset="0" stop-color="#ca1516"/><stop offset="1" stop-color="#280e18"/></linearGradient><linearGradient id="linear-gradient-4" x1="66.4" y1="356.57" x2="82.25" y2="329.12" gradientTransform="matrix(0.25, 0.97, -0.97, 0.25, 388.85, -100.58)" gradientUnits="userSpaceOnUse"><stop offset="0" stop-color="#f90"/><stop offset="1" stop-color="#464225"/></linearGradient><linearGradient id="linear-gradient-5" x1="26.32" y1="314.36" x2="26.32" y2="332.95" gradientTransform="translate(49.31 -286.94) rotate(8.62)" gradientUnits="userSpaceOnUse"><stop offset="0" stop-color="#280e18"/><stop offset="1" stop-color="#102142"/></linearGradient><linearGradient id="linear-gradient-6" x1="25.92" y1="334.57" x2="44.14" y2="366.13" gradientTransform="translate(158.94 -267.81) rotate(26.05)" gradientUnits="userSpaceOnUse"><stop offset="0" stop-color="#102142"/><stop offset="1" stop-color="#da680d"/></linearGradient><linearGradient id="linear-gradient-7" x1="34.09" y1="313.61" x2="34.09" y2="364.96" gradientTransform="translate(121.64 -277.1) rotate(20.42)" gradientUnits="userSpaceOnUse"><stop offset="0" stop-color="#280e18"/><stop offset="1" stop-color="#da680d"/></linearGradient><linearGradient id="linear-gradient-8" x1="29.08" y1="308.22" x2="75.02" y2="334.74" gradientTransform="matrix(0.24, 0.97, -0.97, 0.24, 351.54, -92.98)" gradientUnits="userSpaceOnUse"><stop offset="0" stop-color="#280e18"/><stop offset="1" stop-color="#464225"/></linearGradient><linearGradient id="linear-gradient-9" x1="63.87" y1="307.12" x2="76.85" y2="329.6" gradientTransform="translate(205.81 -266.31) rotate(36.87)" gradientUnits="userSpaceOnUse"><stop offset="0" stop-color="#85a439"/><stop offset="1" stop-color="#464225"/></linearGradient><linearGradient id="linear-gradient-10" x1="20.37" y1="346.68" x2="61.36" y2="305.69" gradientTransform="translate(237.56 -225.81) rotate(43.39)" gradientUnits="userSpaceOnUse"><stop offset="0" stop-color="#ca1516"/><stop offset="1" stop-color="#85a439"/></linearGradient><linearGradient id="linear-gradient-11" x1="20.6" y1="345.36" x2="28.33" y2="331.98" gradientTransform="matrix(0.46, 0.89, -0.89, 0.46, 314.9, -123.95)" gradientUnits="userSpaceOnUse"><stop offset="0" stop-color="#ca1516"/><stop offset="1" stop-color="#102142"/></linearGradient><linearGradient id="linear-gradient-12" x1="21.87" y1="344.13" x2="43.07" y2="365.33" gradientTransform="matrix(0.63, 0.78, -0.78, 0.63, 288.98, -178.82)" gradientUnits="userSpaceOnUse"><stop offset="0" stop-color="#ca1516"/><stop offset="1" stop-color="#da680d"/></linearGradient><linearGradient id="linear-gradient-13" x1="44.1" y1="364.61" x2="80.4" y2="328.3" gradientTransform="translate(276.29 -217.8) rotate(47.84)" gradientUnits="userSpaceOnUse"><stop offset="0" stop-color="#da680d"/><stop offset="1" stop-color="#464225"/></linearGradient><linearGradient id="linear-gradient-14" x1="31.3" y1="329.25" x2="65.78" y2="363.72" gradientTransform="matrix(0.53, 0.85, -0.85, 0.53, 318.27, -165.1)" gradientUnits="userSpaceOnUse"><stop offset="0" stop-color="#102142"/><stop offset="1" stop-color="#f90"/></linearGradient><linearGradient id="linear-gradient-15" x1="66.76" y1="307.12" x2="66.76" y2="359.71" gradientTransform="matrix(0.99, 0.14, -0.14, 0.99, 47.53, -292.69)" gradientUnits="userSpaceOnUse"><stop offset="0" stop-color="#85a439"/><stop offset="1" stop-color="#f90"/></linearGradient><linearGradient id="linear-gradient-16" x1="33.13" y1="343.63" x2="74.7" y2="319.63" gradientTransform="matrix(0.99, 0.1, -0.1, 0.99, 32.51, -289.55)" gradientUnits="userSpaceOnUse"><stop offset="0" stop-color="#102142"/><stop offset="1" stop-color="#464225"/></linearGradient><linearGradient id="linear-gradient-17" x1="25.35" y1="310.14" x2="63.29" y2="310.14" gradientTransform="matrix(0.98, 0.2, -0.2, 0.98, 62.9, -288.4)" gradientUnits="userSpaceOnUse"><stop offset="0" stop-color="#280e18"/><stop offset="1" stop-color="#85a439"/></linearGradient><linearGradient id="linear-gradient-18" x1="23.48" y1="341.06" x2="66.34" y2="365.8" gradientTransform="translate(377.51 -65.24) rotate(75.55)" gradientUnits="userSpaceOnUse"><stop offset="0" stop-color="#ca1516"/><stop offset="1" stop-color="#f90"/></linearGradient><linearGradient id="linear-gradient-19" x1="47.02" y1="367.46" x2="69.71" y2="354.36" gradientTransform="matrix(0.97, 0.24, -0.24, 0.97, 87.47, -287.82)" gradientUnits="userSpaceOnUse"><stop offset="0" stop-color="#da680d"/><stop offset="1" stop-color="#f90"/></linearGradient><linearGradient id="linear-gradient-20" x1="30.41" y1="334.83" x2="61.06" y2="304.18" gradientTransform="matrix(0.8, 0.6, -0.6, 0.8, 200.8, -249.39)" gradientUnits="userSpaceOnUse"><stop offset="0" stop-color="#102142"/><stop offset="1" stop-color="#85a439"/></linearGradient><linearGradient id="linear-gradient-21" x1="23.84" y1="353.05" x2="75.65" y2="323.13" gradientTransform="translate(107.47 -285.7) rotate(18.07)" gradientUnits="userSpaceOnUse"><stop offset="0" stop-color="#ca1516"/><stop offset="1" stop-color="#464225"/></linearGradient></defs><title>news_psd</title><rect x="22.92" y="49.77" width="61.77" height="0.47" transform="translate(-10.14 86.14) rotate(-72.38)" style="fill:url(#linear-gradient)"/><rect x="47.81" y="18.78" width="0.47" height="63.74" transform="translate(-21.75 49.17) rotate(-45.3)" style="fill:url(#linear-gradient-2)"/><rect x="6.96" y="44.04" width="32.45" height="0.47" transform="translate(-23.72 61.5) rotate(-82.52)" style="fill:url(#linear-gradient-3)"/><rect x="58.42" y="56.97" width="32.77" height="0.47" transform="translate(0.72 115.34) rotate(-75.53)" style="fill:url(#linear-gradient-4)"/><rect x="26.57" y="28.14" width="0.47" height="18.73" transform="translate(-5.36 4.48) rotate(-8.69)" style="fill:url(#linear-gradient-5)"/><rect x="36.09" y="44.85" width="0.47" height="36.48" transform="translate(-24.25 22.71) rotate(-26.38)" style="fill:url(#linear-gradient-6)"/><rect x="34.67" y="26.52" width="0.47" height="54.62" transform="translate(-16.58 15.54) rotate(-20.4)" style="fill:url(#linear-gradient-7)"/><rect x="51.93" y="7.24" width="0.47" height="55.11" transform="translate(5.95 77.18) rotate(-76.23)" style="fill:url(#linear-gradient-8)"/><rect x="70.8" y="17.92" width="0.47" height="26.09" transform="translate(-4.27 49.22) rotate(-37.18)" style="fill:url(#linear-gradient-9)"/><rect x="13.13" y="40.27" width="57.97" height="0.47" transform="translate(-16.32 40.05) rotate(-43.44)" style="fill:url(#linear-gradient-10)"/><rect x="16.93" y="53.37" width="15.45" height="0.47" transform="translate(-34.28 50.75) rotate(-62.53)" style="fill:url(#linear-gradient-11)"/><rect x="32.52" y="54.9" width="0.47" height="30.09" transform="matrix(0.63, -0.78, 0.78, 0.63, -42.18, 51.24)" style="fill:url(#linear-gradient-12)"/><rect x="35.98" y="60.16" width="51.38" height="0.47" transform="translate(-24.49 65.52) rotate(-47.81)" style="fill:url(#linear-gradient-13)"/><rect x="49.22" y="34.91" width="0.47" height="49.97" transform="translate(-27.5 70.39) rotate(-58.22)" style="fill:url(#linear-gradient-14)"/><rect x="66.69" y="20.3" width="0.47" height="53.04" transform="translate(-5.97 9.99) rotate(-8.17)" style="fill:url(#linear-gradient-15)"/><rect x="26.91" y="43.58" width="52.15" height="0.93" transform="translate(-4.27 5.72) rotate(-5.94)" style="fill:url(#linear-gradient-16)"/><rect x="25" y="23.93" width="38.54" height="0.93" transform="translate(-3.97 9.31) rotate(-11.49)" style="fill:url(#linear-gradient-17)"/><rect x="45.42" y="41.15" width="0.93" height="51.19" transform="translate(-30.11 94.77) rotate(-75.73)" style="fill:url(#linear-gradient-18)"/><rect x="44.05" y="75.78" width="27.03" height="0.93" transform="translate(-16.34 15.7) rotate(-13.62)" style="fill:url(#linear-gradient-19)"/><rect x="23.86" y="33.19" width="43.66" height="0.93" transform="translate(-11.06 34.11) rotate(-36.84)" style="fill:url(#linear-gradient-20)"/><rect x="19.54" y="50.43" width="60.91" height="0.93" transform="translate(-13.44 18.25) rotate(-18.28)" style="fill:url(#linear-gradient-21)"/><circle cx="44.42" cy="79.43" r="2.07" style="fill:#da680d"/><circle cx="70.69" cy="73.07" r="2.07" style="fill:#f90"/><circle cx="78.92" cy="41.35" r="2.07" style="fill:#464225"/><circle cx="21.08" cy="60.45" r="2.07" style="fill:#ca1516"/><circle cx="28.21" cy="46.75" r="2.07" style="fill:#102142"/><circle cx="63.15" cy="20.57" r="2.07" style="fill:#85a439"/><circle cx="25.38" cy="28.24" r="2.07" style="fill:#280e18"/></svg>